<svg xmlns="http://www.w3.org/2000/svg" width="100" height="100" viewBox="0 0 100 100">
  <!-- Main stapler body -->
  <rect x="15" y="35" width="70" height="20" rx="3" fill="#ff0000" stroke="#cc0000" stroke-width="2" />
  
  <!-- Stapler base -->
  <rect x="20" y="55" width="60" height="15" rx="3" fill="#ff0000" stroke="#cc0000" stroke-width="2" />
  
  <!-- Stapler top (handle) -->
  <rect x="45" y="15" width="40" height="12" rx="3" fill="#ff0000" stroke="#cc0000" stroke-width="2" />
  
  <!-- Hinge -->
  <rect x="45" y="27" width="5" height="8" fill="#cc0000" stroke="#cc0000" stroke-width="1" />
  <rect x="60" y="27" width="5" height="8" fill="#cc0000" stroke="#cc0000" stroke-width="1" />
  <rect x="75" y="27" width="5" height="8" fill="#cc0000" stroke="#cc0000" stroke-width="1" />
  
  <!-- Staple area -->
  <rect x="25" y="39" width="20" height="4" rx="1" fill="#dddddd" stroke="#aaaaaa" stroke-width="1" />
  
  <!-- Staple punch -->
  <rect x="48" y="39" width="4" height="4" rx="1" fill="#dddddd" stroke="#aaaaaa" stroke-width="1" />
  
  <!-- Shadows and highlights -->
  <rect x="15" y="50" width="70" height="5" fill="#cc0000" opacity="0.3" />
  <rect x="20" y="65" width="60" height="5" fill="#cc0000" opacity="0.4" />
  <rect x="45" y="15" width="40" height="4" fill="#ffffff" opacity="0.2" />
  
  <!-- Staples -->
  <rect x="32" y="40" width="6" height="2" fill="#bbbbbb" />
  
  <!-- Stapler front edge -->
  <rect x="15" y="35" width="7" height="20" rx="2" fill="#ff0000" stroke="#cc0000" stroke-width="2" />
</svg>